<?xml version="1.0" standalone="no"?>
<!DOCTYPE svg PUBLIC "-//W3C//DTD SVG 20010904//EN"
 "http://www.w3.org/TR/2001/REC-SVG-20010904/DTD/svg10.dtd">
<svg version="1.0" xmlns="http://www.w3.org/2000/svg"
 width="480.000000pt" height="480.000000pt" viewBox="0 0 480.000000 480.000000"
 preserveAspectRatio="xMidYMid meet">

<g transform="translate(0.000000,480.000000) scale(0.100000,-0.100000)"
fill="#000000" stroke="none">
<path d="M1383 4107 c1 -101 -15 -220 -34 -243 -6 -8 -22 -20 -34 -27 -12 -6
-40 -22 -62 -34 -22 -12 -45 -29 -52 -37 -17 -20 -44 -20 -81 -1 -26 14 -29
13 -35 -4 -9 -28 8 -61 58 -113 44 -47 61 -54 122 -49 11 1 27 10 36 21 14 17
15 12 11 -64 -5 -85 -21 -133 -50 -143 -9 -4 -52 -31 -95 -60 -59 -41 -83 -52
-101 -47 -32 8 -105 -34 -113 -64 -4 -18 3 -33 33 -64 48 -49 71 -59 117 -48
l36 8 69 -108 c66 -102 71 -107 120 -124 59 -19 92 -8 92 31 0 12 4 24 9 27 5
3 10 119 10 257 1 158 6 260 13 273 6 12 23 33 39 48 46 43 38 65 -9 27 l-27
-21 -3 33 c-2 19 -1 58 3 87 6 48 11 56 57 93 28 22 64 43 80 46 80 16 41 148
-42 145 -30 -1 -39 14 -21 33 5 6 12 28 15 50 6 36 3 45 -25 78 -20 23 -40 37
-55 37 -13 0 -24 4 -24 9 0 5 -13 16 -30 24 l-29 15 2 -91z m-97 -814 c-2 -16
-8 -54 -11 -85 -7 -60 -14 -68 -39 -43 -8 8 -21 15 -30 15 -8 0 -17 4 -21 9
-8 13 16 61 30 61 6 0 18 12 26 28 25 48 54 58 45 15z"/>
<path d="M1740 4088 c0 -2 9 -27 20 -57 19 -48 20 -61 9 -130 -6 -42 -13 -95
-16 -119 -6 -48 -24 -64 -110 -100 -63 -27 -63 -27 -63 -3 0 30 -13 32 -40 4
-22 -23 -23 -27 -11 -61 7 -20 28 -51 47 -69 30 -28 37 -31 65 -23 17 5 38 15
47 22 13 11 14 10 9 -14 -16 -62 -26 -76 -59 -83 -46 -9 -118 -38 -118 -48 0
-15 48 -25 89 -20 22 3 41 3 41 0 0 -4 -12 -36 -27 -71 l-26 -65 -33 37 -34
37 10 -34 c12 -44 6 -51 -14 -14 l-16 28 6 -40 c3 -22 12 -72 21 -112 8 -40
12 -77 9 -82 -8 -13 27 -93 48 -110 12 -10 21 -9 45 3 37 20 40 24 51 88 20
112 30 149 49 192 11 24 23 63 27 87 9 61 21 79 49 79 l25 0 -30 -42 c-32 -48
-22 -63 17 -27 19 18 25 19 20 7 -5 -13 2 -11 30 8 20 13 38 23 40 21 2 -2 -8
-37 -22 -78 -46 -135 -25 -233 70 -333 52 -55 77 -60 286 -53 261 9 303 23
330 106 6 20 18 43 25 52 12 14 9 27 -24 100 -21 46 -45 118 -52 159 -8 41
-19 84 -26 95 -7 11 -15 44 -19 72 -4 29 -11 55 -15 58 -4 3 -11 33 -15 67
-11 94 -21 113 -29 58 -16 -104 -20 -109 -28 -30 -4 41 -8 83 -8 92 -1 9 -8
19 -16 22 -9 3 -12 11 -8 17 4 8 3 9 -4 5 -7 -4 -12 -22 -12 -41 0 -19 -4 -67
-10 -107 -5 -40 -14 -149 -20 -243 -5 -93 -12 -179 -15 -191 -8 -25 -77 -44
-161 -44 -47 0 -59 4 -79 26 -30 32 -30 44 -6 125 11 35 22 80 26 99 4 19 10
37 14 40 3 3 12 28 19 55 19 74 81 194 123 236 l37 37 -30 59 c-39 77 -52 90
-96 97 -20 4 -49 9 -64 12 -22 4 -29 0 -42 -28 -12 -25 -30 -40 -72 -58 -31
-14 -60 -31 -66 -37 -13 -16 -38 -17 -38 -2 0 5 12 35 26 64 23 47 25 58 15
82 -25 58 -103 123 -147 123 -13 0 -24 -1 -24 -2z m325 -330 c-12 -35 -34 -92
-47 -128 l-25 -65 -64 -1 c-35 0 -75 -6 -87 -13 -23 -12 -23 -12 -17 36 5 34
16 57 38 81 17 17 35 32 39 32 5 0 45 27 90 60 44 33 84 60 88 60 5 0 -2 -28
-15 -62z"/>
<path d="M3258 3293 c-17 -4 -17 -7 -2 -36 9 -18 23 -39 31 -48 12 -15 10 -23
-18 -70 -50 -86 -65 -99 -121 -99 -36 0 -48 -4 -48 -15 0 -8 -6 -15 -12 -15
-7 0 2 -10 19 -22 18 -13 33 -26 33 -30 0 -12 -90 -162 -112 -185 -12 -12 -25
-20 -29 -17 -5 3 -9 -1 -10 -8 0 -7 -7 1 -14 17 -14 30 -14 29 -15 -27 0 -57
-15 -88 -22 -46 -3 18 -10 11 -31 -36 -15 -33 -28 -69 -28 -80 0 -33 25 -139
38 -162 27 -48 83 -40 109 14 9 21 25 48 34 62 10 14 48 84 85 155 36 72 75
142 85 155 22 29 19 31 95 -65 22 -27 50 -61 63 -75 13 -14 38 -45 55 -70 51
-73 40 -61 184 -213 80 -85 172 -108 219 -56 9 10 23 19 31 19 7 0 13 4 13 8
0 11 87 72 103 72 7 0 20 7 30 14 18 14 18 14 0 19 -15 3 -14 6 7 15 15 6 19
11 10 12 -19 2 35 19 80 26 52 7 58 22 8 19 -23 -1 -32 0 -19 2 18 3 21 7 11
13 -10 6 -4 11 21 18 33 9 33 10 9 16 -14 3 -68 12 -120 21 -52 8 -120 22
-150 30 -30 9 -68 20 -85 24 -31 9 -86 34 -120 54 -143 86 -335 232 -335 256
0 9 24 42 53 72 29 30 59 66 66 81 12 24 11 31 -14 75 -16 26 -34 51 -41 56
-7 4 -19 13 -26 20 -7 8 -27 16 -43 20 -17 3 -37 8 -45 10 -8 3 -23 3 -32 0z"/>
<path d="M3200 2370 c-8 -5 -24 -10 -35 -10 -33 -1 -85 -67 -85 -107 0 -10 -8
-23 -19 -30 -16 -10 -17 -17 -8 -57 6 -25 14 -46 19 -46 4 0 8 -11 8 -25 0
-14 -4 -25 -10 -25 -5 0 -10 -16 -10 -35 0 -19 5 -35 10 -35 6 0 10 -9 10 -20
0 -11 -4 -20 -10 -20 -5 0 -10 -7 -10 -15 0 -8 5 -15 10 -15 6 0 10 -12 10
-26 0 -53 22 -114 41 -114 10 0 21 -5 25 -11 4 -7 20 -9 40 -6 43 7 72 -1 77
-22 4 -14 5 -14 6 2 1 24 91 26 91 1 0 -14 1 -14 16 0 19 20 33 20 40 1 4 -8
12 -15 20 -15 8 0 14 7 14 15 0 9 9 15 23 15 25 1 57 22 57 38 0 5 7 13 16 16
14 5 16 17 10 75 -5 45 -3 71 3 76 19 11 1 109 -23 128 -8 6 -7 10 2 14 14 5
17 43 3 43 -5 0 -12 11 -15 24 -6 25 -88 116 -105 116 -5 0 -9 -17 -9 -37 0
-26 -6 -42 -21 -54 -24 -20 -27 -29 -7 -29 8 0 17 7 20 16 9 24 24 8 18 -21
-2 -15 0 -25 7 -25 6 0 11 -9 11 -20 0 -11 5 -20 10 -20 19 0 10 -25 -15 -44
-21 -16 -24 -24 -19 -56 5 -29 2 -38 -10 -43 -29 -11 -20 -77 15 -120 17 -21
29 -41 25 -44 -7 -8 -56 25 -56 38 0 6 -7 17 -15 25 -23 23 -20 96 6 117 23
20 21 40 -4 45 -13 3 -17 -4 -17 -25 0 -22 -2 -25 -10 -13 -8 13 -10 12 -10
-2 0 -10 -4 -18 -9 -18 -5 0 -13 -36 -17 -80 -6 -77 -15 -97 -28 -64 -3 8 -10
13 -15 10 -9 -6 -21 88 -21 170 0 47 2 54 20 54 11 0 20 7 20 16 0 8 -4 13 -8
10 -4 -2 -9 4 -9 15 -2 24 24 58 55 70 22 8 31 29 13 29 -5 0 -17 7 -25 16
-18 17 -22 84 -6 84 6 0 10 -16 10 -35 0 -25 4 -35 15 -35 9 0 15 6 14 13 -1
6 -1 27 0 45 2 51 21 28 21 -26 1 -44 2 -46 16 -27 8 11 13 30 11 42 -2 12 1
24 6 26 20 6 -5 27 -33 27 -15 0 -30 5 -32 11 -2 6 -24 15 -48 19 -25 5 -52
11 -60 14 -8 3 -22 1 -30 -4z m60 -87 c6 -16 15 -36 20 -45 14 -25 12 -57 -4
-73 -24 -24 -39 -140 -33 -251 3 -58 1 -104 -4 -104 -5 0 -9 10 -9 23 0 13 -4
27 -9 33 -6 5 -12 32 -14 59 -3 41 -4 37 -5 -22 -1 -47 -6 -73 -13 -73 -8 0
-10 26 -5 93 8 105 15 137 27 137 5 0 5 -7 2 -17 -4 -11 -3 -14 5 -9 15 9 16
82 2 91 -5 3 -10 1 -10 -4 0 -24 -36 -92 -51 -96 -43 -14 -65 36 -57 129 3 45
28 63 28 22 0 -16 6 -26 15 -26 9 0 15 9 15 25 0 31 18 33 24 3 3 -13 7 -32 9
-43 3 -11 5 -2 6 21 1 31 -5 48 -24 68 -14 15 -25 31 -25 36 0 16 42 -3 50
-24 5 -11 9 -15 9 -8 1 7 -4 22 -9 33 -6 10 -7 19 -2 19 20 0 42 -28 51 -65 8
-36 9 -37 10 -10 0 17 -6 41 -14 55 -17 30 -19 50 -5 50 6 0 15 -12 20 -27z"/>
<path d="M3231 2144 c0 -11 3 -14 6 -6 3 7 2 16 -1 19 -3 4 -6 -2 -5 -13z"/>
<path d="M3142 2111 c-16 -10 -12 -43 6 -49 8 -2 12 7 12 27 0 34 0 34 -18 22z"/>
<path d="M2426 2275 c-30 -45 -44 -56 -79 -66 -52 -14 -83 -25 -217 -79 -58
-23 -123 -49 -145 -57 -22 -8 -55 -21 -73 -29 -18 -8 -57 -14 -86 -14 -52 0
-85 -17 -72 -38 13 -22 117 -94 147 -102 27 -8 37 -6 53 8 12 10 50 31 86 46
36 16 88 39 115 51 173 78 322 132 333 120 17 -17 22 -160 22 -664 0 -635 2
-611 -63 -611 -29 0 -30 0 -12 -20 18 -20 17 -20 -10 -20 -21 0 -26 -4 -21
-16 5 -13 1 -15 -23 -12 -17 2 -29 0 -28 -6 1 -6 -14 -9 -36 -7 -25 2 -39 -2
-43 -12 -7 -19 -107 -31 -149 -19 -21 7 -38 5 -59 -5 -30 -16 -33 -15 -109 23
-16 8 -33 14 -38 14 -23 0 6 -20 83 -59 46 -23 90 -46 98 -51 8 -5 104 -53
213 -106 108 -53 200 -100 203 -105 3 -5 16 -9 29 -9 18 0 27 -8 36 -35 8 -22
16 -30 20 -23 6 9 14 4 29 -15 19 -24 23 -25 36 -12 20 19 33 19 40 0 5 -11
11 -6 25 20 11 19 27 43 37 54 9 10 25 28 34 39 10 12 29 22 43 22 14 0 25 5
25 12 0 6 8 20 18 31 14 16 17 37 15 146 -1 69 -7 149 -13 176 -12 52 -34 282
-48 485 -4 63 -6 199 -4 301 3 182 3 188 27 213 58 63 61 120 11 198 -30 47
-165 182 -239 239 -21 16 -137 49 -174 49 0 0 -17 -25 -37 -55z m-329 -1561
c-3 -3 -12 -4 -19 -1 -8 3 -5 6 6 6 11 1 17 -2 13 -5z"/>
<path d="M1370 2221 c0 -10 7 -24 15 -31 8 -7 15 -18 15 -25 0 -7 9 -24 21
-39 23 -29 24 -27 -36 -94 -16 -19 -30 -39 -30 -45 0 -21 47 -19 76 2 33 24
67 27 75 6 7 -17 59 -45 84 -45 9 0 20 -4 26 -9 5 -6 28 -13 50 -17 l42 -6 6
38 c18 110 18 154 1 180 -19 29 -87 63 -125 64 -14 0 -49 9 -78 20 -29 11 -72
20 -97 20 -37 0 -45 -3 -45 -19z"/>
<path d="M3312 2130 c-15 -24 -16 -50 -2 -50 6 0 10 11 10 25 0 18 4 23 15 19
9 -4 15 0 15 10 0 22 -23 20 -38 -4z"/>
<path d="M3360 2144 c0 -14 33 -74 41 -74 14 0 10 22 -8 42 -15 17 -15 18 0
18 10 0 17 5 17 10 0 6 -11 10 -25 10 -14 0 -25 -3 -25 -6z"/>
<path d="M3340 2085 c0 -8 -4 -15 -10 -15 -5 0 -10 -9 -10 -20 0 -24 25 -27
34 -4 9 24 7 54 -4 54 -5 0 -10 -7 -10 -15z"/>
<path d="M3270 1972 c0 -39 4 -62 13 -65 10 -4 10 -6 0 -6 -18 -1 -16 -21 1
-21 9 0 15 18 19 53 4 28 8 61 9 72 2 14 -4 21 -19 23 -22 3 -23 0 -23 -56z"/>
<path d="M1214 1896 c-3 -8 10 -38 29 -68 32 -48 36 -62 41 -143 8 -119 -25
-537 -44 -561 -32 -37 -8 -222 34 -267 13 -14 26 -31 29 -39 6 -18 110 -88
128 -88 8 0 24 12 37 28 22 25 23 32 16 92 -5 36 -9 216 -8 400 1 284 3 340
16 360 19 31 30 98 17 105 -5 4 -9 15 -9 25 0 29 -56 87 -90 94 -19 3 -34 15
-42 31 -6 14 -20 26 -32 26 -38 3 -63 6 -90 13 -18 4 -28 2 -32 -8z"/>
<path d="M2078 1893 c-15 -2 -30 -13 -33 -24 -4 -10 -10 -19 -15 -19 -4 0 -10
-8 -13 -19 -2 -10 -44 -42 -92 -72 -48 -30 -106 -66 -130 -81 l-43 -26 -57 19
c-32 10 -67 19 -78 19 -20 0 -20 0 0 -22 26 -29 34 -97 13 -109 -8 -4 -32 -16
-52 -25 -21 -9 -38 -21 -38 -27 0 -15 32 -36 57 -37 42 0 55 -37 48 -141 -4
-52 -11 -108 -16 -126 -8 -24 -6 -39 5 -62 28 -54 22 -68 -34 -75 -27 -4 -50
-9 -50 -11 0 -10 43 -48 88 -76 54 -34 103 -38 140 -9 15 13 38 20 58 18 18
-1 39 4 47 11 9 7 28 11 44 9 25 -3 21 -7 -47 -47 -41 -25 -69 -46 -62 -49 7
-2 24 3 37 12 28 18 35 20 35 7 0 -5 -10 -11 -22 -15 -18 -5 -20 -8 -9 -15 7
-5 10 -14 6 -21 -6 -9 -3 -9 14 -1 11 7 21 16 21 22 0 6 4 8 9 5 4 -3 28 4 52
16 24 12 60 28 79 35 42 15 48 10 87 -67 26 -50 32 -55 78 -67 68 -17 68 -17
84 18 8 18 23 34 34 37 17 4 19 11 13 59 -3 30 -7 59 -9 66 -1 7 9 12 23 12
21 0 27 7 35 40 5 22 14 43 19 47 6 4 4 14 -6 25 -8 10 -14 23 -12 28 4 11
-57 38 -86 39 -33 2 -17 451 17 475 13 10 33 60 33 84 -1 29 -13 43 -85 96
-49 38 -67 45 -110 47 -27 1 -62 0 -77 -3z m58 -217 c-6 -30 -11 -34 -45 -40
-56 -9 -77 -23 -170 -114 -46 -45 -90 -82 -97 -82 -23 0 -17 59 11 106 40 69
133 127 243 153 28 7 52 18 53 24 0 8 3 7 6 -1 3 -7 2 -28 -1 -46z m-20 -298
c-3 -62 -9 -133 -13 -157 l-6 -44 -58 6 c-39 3 -58 1 -56 -6 2 -12 -42 -23
-120 -29 l-53 -5 0 98 c0 88 2 97 18 93 10 -3 34 10 60 32 24 20 45 34 48 31
7 -7 -37 -95 -76 -152 -16 -24 -30 -46 -30 -49 0 -12 32 -6 46 8 7 8 17 16 21
18 9 3 90 107 147 187 48 68 59 80 70 81 5 0 6 -48 2 -112z m-160 -422 c9 -9
10 -17 4 -21 -5 -3 -10 -1 -10 4 0 6 -7 11 -16 11 -8 0 -12 5 -9 10 8 13 14
13 31 -4z"/>
</g>
</svg>
